# xmcd
#
# Track frame offsets: 
#        150
#        18745
#        41431
#        66268
#
# Disc length: 1168 seconds
#
# Revision: 1
# Processed by: cddbd v1.5.1PL0 Copyright (c) Steve Scherf et al.
# Submitted via: ExactAudioCopy v0.95a5
#
DISCID=30048e04
DTITLE=Aaliyah - Try Again
DYEAR=2000
DGENRE=R&B
TTITLE0=Try Again
TTITLE1=Try Again (Timbaland Remix)
TTITLE2=Try Again (D'Jam Hassan Remix)
TTITLE3=Try Again - Instrumental
EXTD=
EXTT0=
EXTT1=
EXTT2=
EXTT3=
PLAYORDER=
